<svg width="42" height="27" viewBox="0 0 42 27" fill="none" xmlns="http://www.w3.org/2000/svg">
<path fill-rule="evenodd" clip-rule="evenodd" d="M40.0312 15.2522C41.084 15.2522 41.9375 14.3988 41.9375 13.346C41.9375 12.2932 41.084 11.4397 40.0312 11.4397C40.023 11.4397 40.0148 11.4398 40.0066 11.4399H5.98562L12.9053 3.12864C13.2289 2.73935 13.3845 2.23747 13.3381 1.73341C13.2916 1.22934 13.0468 0.764388 12.6575 0.440824C12.2682 0.11726 11.7663 -0.0384075 11.2623 0.00806629C10.7582 0.0545401 10.2932 0.299349 9.96968 0.688637L0.438437 12.1261C0.374312 12.2171 0.31697 12.3127 0.266875 12.4121C0.266875 12.5074 0.266875 12.5646 0.133438 12.6599C0.0470341 12.8784 0.00179401 13.1111 0 13.3461C0.00179401 13.5812 0.0470341 13.8138 0.133438 14.0324C0.133438 14.1277 0.133437 14.1849 0.266875 14.2802C0.31697 14.3796 0.374312 14.4752 0.438437 14.5661L9.96968 26.0036C10.1489 26.2188 10.3734 26.3919 10.627 26.5105C10.8807 26.6291 11.1574 26.6903 11.4375 26.6899C11.8829 26.6907 12.3145 26.5356 12.6575 26.2514C12.8505 26.0914 13.0101 25.8949 13.127 25.6731C13.244 25.4513 13.316 25.2086 13.339 24.9589C13.3621 24.7093 13.3356 24.4575 13.2612 24.2181C13.1867 23.9786 13.0658 23.7563 12.9053 23.5636L5.98562 15.2524L40.0312 15.2523L40.0312 15.2522Z" fill="#4F4F4F"/>
</svg>
