<svg width="43" height="42" viewBox="0 0 43 42" fill="none" xmlns="http://www.w3.org/2000/svg">
<path d="M21.6503 37.4848C30.0921 37.4848 36.9354 30.6414 36.9354 22.1997C36.9354 13.7579 30.0921 6.91455 21.6503 6.91455C13.2086 6.91455 6.36523 13.7579 6.36523 22.1997C6.36523 30.6414 13.2086 37.4848 21.6503 37.4848Z" stroke="#4F4F4F" stroke-width="3.5"/>
<path d="M39.1124 2.9609C39.8722 3.74995 40.3534 4.76566 40.4827 5.8534C40.6119 6.94114 40.3822 8.04133 39.8285 8.98647C38.6423 10.4132 36.3969 10.0268 34.8148 8.12587C34.0556 7.33676 33.5748 6.32122 33.4458 5.23378C33.3168 4.14633 33.5466 3.0465 34.1001 2.10165C35.2863 0.674964 37.5236 1.06676 39.1124 2.9609Z" fill="#4F4F4F"/>
<path d="M4.02812 2.9612C5.61828 1.06571 7.85558 0.673912 9.04178 2.10059C9.59549 3.04573 9.82521 4.14592 9.69595 5.23366C9.56669 6.32141 9.08553 7.33712 8.32573 8.12617C6.74368 10.0271 4.49963 10.4121 3.31343 8.98542C2.75987 8.04056 2.53011 6.94074 2.65912 5.85329C2.78814 4.76584 3.26885 3.7503 4.02812 2.9612Z" fill="#4F4F4F"/>
<path d="M27.4396 22.6417H21.3867V15.7642" stroke="#4F4F4F" stroke-width="3.5" stroke-linecap="round"/>
</svg>
