<svg width="32" height="30" viewBox="0 0 32 30" fill="none" xmlns="http://www.w3.org/2000/svg">
<path d="M2 5.99906H2.142C2.36027 6.85665 2.85806 7.61706 3.55672 8.16017C4.25537 8.70328 5.11507 8.99813 6 8.99813C6.88493 8.99813 7.74463 8.70328 8.44328 8.16017C9.14194 7.61706 9.63973 6.85665 9.858 5.99906H30C30.2652 5.99906 30.5196 5.89371 30.7071 5.70617C30.8946 5.51863 31 5.26428 31 4.99906C31 4.73385 30.8946 4.47949 30.7071 4.29196C30.5196 4.10442 30.2652 3.99906 30 3.99906H9.858C9.63973 3.14148 9.14194 2.38107 8.44328 1.83796C7.74463 1.29485 6.88493 1 6 1C5.11507 1 4.25537 1.29485 3.55672 1.83796C2.85806 2.38107 2.36027 3.14148 2.142 3.99906H2C1.73478 3.99906 1.48043 4.10442 1.29289 4.29196C1.10536 4.47949 1 4.73385 1 4.99906C1 5.26428 1.10536 5.51863 1.29289 5.70617C1.48043 5.89371 1.73478 5.99906 2 5.99906ZM6 2.99906C6.39556 2.99906 6.78224 3.11636 7.11114 3.33613C7.44004 3.55589 7.69638 3.86825 7.84776 4.2337C7.99913 4.59915 8.03874 5.00128 7.96157 5.38925C7.8844 5.77721 7.69392 6.13357 7.41421 6.41328C7.13451 6.69298 6.77814 6.88346 6.39018 6.96064C6.00222 7.03781 5.60009 6.9982 5.23463 6.84682C4.86918 6.69545 4.55682 6.4391 4.33706 6.1102C4.1173 5.78131 4 5.39463 4 4.99906C4 4.46863 4.21071 3.95992 4.58579 3.58485C4.96086 3.20978 5.46957 2.99906 6 2.99906ZM30 13.9991H29.858C29.6397 13.1415 29.1419 12.3811 28.4433 11.838C27.7446 11.2948 26.8849 11 26 11C25.1151 11 24.2554 11.2948 23.5567 11.838C22.8581 12.3811 22.3603 13.1415 22.142 13.9991H2C1.73478 13.9991 1.48043 14.1044 1.29289 14.292C1.10536 14.4795 1 14.7338 1 14.9991C1 15.2643 1.10536 15.5186 1.29289 15.7062C1.48043 15.8937 1.73478 15.9991 2 15.9991H22.142C22.3603 16.8566 22.8581 17.6171 23.5567 18.1602C24.2554 18.7033 25.1151 18.9981 26 18.9981C26.8849 18.9981 27.7446 18.7033 28.4433 18.1602C29.1419 17.6171 29.6397 16.8566 29.858 15.9991H30C30.2652 15.9991 30.5196 15.8937 30.7071 15.7062C30.8946 15.5186 31 15.2643 31 14.9991C31 14.7338 30.8946 14.4795 30.7071 14.292C30.5196 14.1044 30.2652 13.9991 30 13.9991ZM26 16.9991C25.6044 16.9991 25.2178 16.8818 24.8889 16.662C24.56 16.4422 24.3036 16.1299 24.1522 15.7644C24.0009 15.399 23.9613 14.9968 24.0384 14.6089C24.1156 14.2209 24.3061 13.8646 24.5858 13.5849C24.8655 13.3051 25.2219 13.1147 25.6098 13.0375C25.9978 12.9603 26.3999 12.9999 26.7654 13.1513C27.1308 13.3027 27.4432 13.559 27.6629 13.8879C27.8827 14.2168 28 14.6035 28 14.9991C28 15.5295 27.7893 16.0382 27.4142 16.4133C27.0391 16.7884 26.5304 16.9991 26 16.9991ZM30 23.9991H19.858C19.6397 23.1415 19.1419 22.3811 18.4433 21.838C17.7446 21.2948 16.8849 21 16 21C15.1151 21 14.2554 21.2948 13.5567 21.838C12.8581 22.3811 12.3603 23.1415 12.142 23.9991H2C1.73478 23.9991 1.48043 24.1044 1.29289 24.292C1.10536 24.4795 1 24.7338 1 24.9991C1 25.2643 1.10536 25.5186 1.29289 25.7062C1.48043 25.8937 1.73478 25.9991 2 25.9991H12.142C12.3603 26.8566 12.8581 27.6171 13.5567 28.1602C14.2554 28.7033 15.1151 28.9981 16 28.9981C16.8849 28.9981 17.7446 28.7033 18.4433 28.1602C19.1419 27.6171 19.6397 26.8566 19.858 25.9991H30C30.2652 25.9991 30.5196 25.8937 30.7071 25.7062C30.8946 25.5186 31 25.2643 31 24.9991C31 24.7338 30.8946 24.4795 30.7071 24.292C30.5196 24.1044 30.2652 23.9991 30 23.9991ZM16 26.9991C15.6044 26.9991 15.2178 26.8818 14.8889 26.662C14.56 26.4422 14.3036 26.1299 14.1522 25.7644C14.0009 25.399 13.9613 24.9968 14.0384 24.6089C14.1156 24.2209 14.3061 23.8646 14.5858 23.5849C14.8655 23.3051 15.2219 23.1147 15.6098 23.0375C15.9978 22.9603 16.3999 22.9999 16.7654 23.1513C17.1308 23.3027 17.4432 23.559 17.6629 23.8879C17.8827 24.2168 18 24.6035 18 24.9991C18 25.5295 17.7893 26.0382 17.4142 26.4133C17.0391 26.7884 16.5304 26.9991 16 26.9991Z" fill="#F8FCEF" stroke="#F8FCEF" stroke-width="0.5"/>
</svg>
