<svg width="22" height="23" viewBox="0 0 22 23" fill="none" xmlns="http://www.w3.org/2000/svg">
<g clip-path="url(#clip0)">
<path d="M21.9895 11.7152C21.9895 10.7729 21.9146 10.0853 21.7526 9.37219H11.2191V13.6253H17.4021C17.2775 14.6822 16.6043 16.2739 15.1084 17.3435L15.0874 17.4859L18.4179 20.1215L18.6487 20.1451C20.7678 18.1458 21.9895 15.2043 21.9895 11.7152Z" fill="#4285F4"/>
<path d="M11.2191 22.921C14.2482 22.921 16.7912 21.9023 18.6487 20.1451L15.1084 17.3435C14.161 18.0184 12.8895 18.4896 11.2191 18.4896C8.2523 18.4896 5.73424 16.4904 4.83662 13.7272L4.70505 13.7386L1.24194 16.4764L1.19666 16.605C3.04156 20.3487 6.83115 22.921 11.2191 22.921Z" fill="#34A853"/>
<path d="M4.83665 13.7272C4.5998 13.0141 4.46273 12.25 4.46273 11.4605C4.46273 10.671 4.5998 9.90698 4.82419 9.1939L4.81791 9.04203L1.31141 6.26025L1.19668 6.316C0.436305 7.86955 0 9.61413 0 11.4605C0 13.3069 0.436305 15.0514 1.19668 16.605L4.83665 13.7272Z" fill="#FBBC05"/>
<path d="M11.2191 4.43142C13.3258 4.43142 14.7469 5.36099 15.5572 6.13781L18.7234 2.97979C16.7788 1.13338 14.2482 6.10352e-05 11.2191 6.10352e-05C6.83115 6.10352e-05 3.04156 2.57229 1.19666 6.31602L4.82416 9.19392C5.73424 6.43067 8.2523 4.43142 11.2191 4.43142Z" fill="#EB4335"/>
</g>
<defs>
<clipPath id="clip0">
<rect width="22" height="23" fill="white"/>
</clipPath>
</defs>
</svg>
