<svg width="46" height="38" viewBox="0 0 46 38" fill="none" xmlns="http://www.w3.org/2000/svg">
<path d="M40.3214 1.875H4.96429C3.18909 1.875 1.75 3.55393 1.75 5.625V31.875C1.75 33.9461 3.18909 35.625 4.96429 35.625H40.3214C42.0966 35.625 43.5357 33.9461 43.5357 31.875V5.625C43.5357 3.55393 42.0966 1.875 40.3214 1.875Z" stroke="#4F4F4F" stroke-width="3.5"/>
<path d="M12.9999 18.75C14.7751 18.75 16.2142 17.0711 16.2142 15C16.2142 12.9289 14.7751 11.25 12.9999 11.25C11.2247 11.25 9.78564 12.9289 9.78564 15C9.78564 17.0711 11.2247 18.75 12.9999 18.75Z" fill="#4F4F4F"/>
<path d="M5.30005 34.9962L15.7336 24.7826L22.6267 28.9061L34.1788 14.9956L43.5002 26.5184V34.9944L5.30005 34.9962Z" fill="#4F4F4F"/>
</svg>
