<svg width="104" height="24" viewBox="0 0 104 24" fill="none" xmlns="http://www.w3.org/2000/svg">
<path d="M14.5279 3.90528C14.5986 2.90696 14.8474 1.9294 15.2625 1.01893C15.4411 0.698648 15.7087 0.437161 16.0329 0.266203C16.3571 0.0952439 16.7239 0.0221722 17.0887 0.0558589C17.3075 0.0723442 17.5235 0.114709 17.7324 0.182076C18.0681 0.284899 18.3954 0.41382 18.7111 0.567656C19.082 0.75516 19.4267 0.990589 19.7364 1.26792C20.0586 1.54567 20.3156 1.89125 20.4889 2.27997C20.5374 2.59916 20.5374 2.92387 20.4889 3.24306C20.4365 3.6246 20.3663 4.02401 20.2788 4.43033C20.0231 5.60378 19.8026 6.84695 19.6207 8.15007C19.4388 9.45319 19.3162 10.7805 19.2534 12.1269C19.1906 13.4732 19.1728 14.8242 19.2045 16.1688C19.2361 17.5134 19.3271 18.8344 19.4774 20.1162C19.5955 20.5909 19.6866 21.072 19.7502 21.5571C19.8048 21.9263 19.7941 22.3022 19.7186 22.6677C19.6556 22.9546 19.4836 23.2057 19.239 23.368C18.9196 23.5477 18.5552 23.6316 18.1895 23.6095C17.4922 23.6319 16.8061 23.4299 16.232 23.0331C15.4149 22.3917 14.6731 21.6597 14.0207 20.8511C13.0846 19.7301 12.2075 18.561 11.3931 17.3486C10.4743 16.0038 9.53395 14.507 8.57211 12.8583C7.61028 11.2095 6.66994 9.4874 5.75109 7.69188C5.64631 8.69819 5.56706 9.7408 5.51332 10.8197C5.45575 11.9021 5.44309 12.9879 5.46439 14.0772C5.48569 15.1665 5.53463 16.242 5.60774 17.3048C5.68086 18.3676 5.78622 19.375 5.9123 20.3346C5.98975 20.7834 6.09141 21.2277 6.21685 21.6654C6.32361 21.9994 6.3882 22.3454 6.40914 22.6954C6.42098 22.8156 6.40881 22.937 6.37332 23.0525C6.33784 23.1679 6.27976 23.2752 6.20246 23.368C6.08649 23.4612 5.95322 23.5306 5.81034 23.572C5.66745 23.6135 5.51779 23.6262 5.36997 23.6095C4.81457 23.6097 4.26076 23.5498 3.71824 23.4308C3.4474 23.3737 3.19052 23.2635 2.96238 23.1066C2.73424 22.9498 2.53934 22.7493 2.3889 22.5167C2.21065 22.206 2.06517 21.8777 1.95481 21.5369C1.83564 21.1865 1.72452 20.7946 1.60477 20.3635C1.19291 18.8208 0.861233 17.2577 0.611087 15.6806C0.357004 14.0765 0.180835 12.5203 0.0825791 11.0122C-0.0141952 9.59677 -0.0259253 8.17678 0.0474576 6.75993C0.101767 5.58615 0.268144 4.42027 0.544306 3.27822C0.734526 2.43417 1.08369 1.63413 1.57311 0.920943C1.74797 0.655474 1.98586 0.437565 2.26547 0.286693C2.54508 0.135821 2.85769 0.0566941 3.17533 0.0564218C3.21717 0.0564218 3.37069 0.0773674 3.63591 0.119249C3.93528 0.17004 4.23005 0.245022 4.51733 0.343452C4.84042 0.451781 5.1522 0.591334 5.44827 0.760147C5.7292 0.910107 5.95388 1.14737 6.08847 1.43621C6.78816 3.04037 7.44601 4.46203 8.06203 5.70117C8.67804 6.94032 9.29733 8.10781 9.91987 9.20363C10.5497 10.3056 11.2064 11.3915 11.89 12.4612C12.5735 13.5309 13.3327 14.6855 14.1675 15.925C14.1013 14.8565 14.0662 13.7706 14.0558 12.6675C14.0455 11.5644 14.0558 10.4993 14.0875 9.45897C14.1192 8.41866 14.1715 7.42734 14.2487 6.47464C14.3258 5.52193 14.4191 4.68623 14.5279 3.90528Z" fill="#4F4F4F"/>
<path d="M32.8582 18.7712C32.6446 19.3292 32.3713 19.8623 32.0429 20.3613C31.6912 20.9051 31.2648 21.3968 30.7764 21.8218C30.2713 22.2546 29.704 22.6088 29.0935 22.8725C28.4408 23.1544 27.7364 23.2963 27.0256 23.2892C26.3902 23.2859 25.7607 23.1672 25.1677 22.9388C24.5817 22.7211 24.0311 22.4177 23.5338 22.0385C23.0408 21.6648 22.6037 21.2225 22.2356 20.725C21.8675 20.2333 21.5804 19.6858 21.3853 19.1032C21.0196 18.043 20.8999 16.9135 21.0352 15.8001C21.1579 14.731 21.4845 13.6954 21.9972 12.7495C22.4647 11.8681 23.1204 11.1007 23.9178 10.5018C24.6602 9.93731 25.5677 9.63346 26.4999 9.63724C26.7753 9.64035 27.0491 9.67792 27.3151 9.74905C27.5946 9.82274 27.8603 9.94107 28.1021 10.0995C28.2703 10.0574 28.4522 10.0188 28.599 9.98766C28.7626 9.95506 28.929 9.93865 29.0958 9.93868C29.9021 9.90943 30.692 10.1717 31.321 10.6775C31.9034 11.1639 32.3737 11.7709 32.6993 12.4567C33.0305 13.1543 33.2423 13.9026 33.3256 14.6705C33.4158 15.3504 33.3826 16.0409 33.2278 16.709C33.4891 16.9286 33.8176 17.0523 34.1587 17.0594C34.3593 17.0701 34.5596 17.032 34.7423 16.9484C34.9251 16.8648 35.0849 16.7382 35.2082 16.5794C35.4529 16.2572 35.7154 15.8791 35.9918 15.4549C36.1841 15.199 36.3418 15.0699 36.408 15.0699C36.6384 15.0998 36.8556 15.1945 37.0344 15.3431C37.1861 15.4812 37.3056 15.651 37.3844 15.8405C37.4752 16.2145 37.4752 16.6048 37.3844 16.9788C37.2868 17.3775 37.1055 17.7508 36.8525 18.0738C36.592 18.4085 36.2657 18.6863 35.8939 18.8899C35.5009 19.1064 35.0586 19.2174 34.6101 19.2121C33.9991 19.2092 33.3979 19.0579 32.8582 18.7712ZM27.4418 20.344C27.8699 20.3317 28.2795 20.1666 28.5967 19.8784C28.9268 19.5772 29.1842 19.2046 29.3492 18.7891C29.5384 18.3176 29.6564 17.8205 29.6992 17.3142C29.753 16.7737 29.7366 16.2286 29.6502 15.6924C29.4423 15.5279 29.2496 15.3451 29.0745 15.146C28.8544 14.9033 28.6511 14.6458 28.466 14.3754C28.2687 14.0918 28.0876 13.7972 27.9237 13.493C27.7597 13.2046 27.6304 12.8978 27.5385 12.5789C27.4957 12.4834 27.4788 12.3782 27.4896 12.274C27.4994 12.195 27.5052 12.1156 27.5069 12.036C27.0429 12.2555 26.6403 12.5864 26.3347 12.9991C25.9761 13.4582 25.6948 13.9729 25.5022 14.5229C25.3035 15.0968 25.1857 15.6957 25.1522 16.3021C25.1068 16.8929 25.172 17.4869 25.3445 18.0536C25.5142 18.6136 25.7793 19.1401 26.128 19.6098C26.2691 19.8315 26.4631 20.0146 26.6924 20.1426C26.9217 20.2707 27.1792 20.3397 27.4418 20.3435V20.344Z" fill="#4F4F4F"/>
<path d="M44.6875 9.40133C44.766 9.67965 44.766 9.97428 44.6875 10.2526C44.6148 10.5156 44.4777 10.7563 44.2885 10.9529C44.093 11.1593 43.8649 11.332 43.6132 11.4641C43.3767 11.5984 43.1143 11.6807 42.8435 11.7056C42.5523 11.7476 42.2566 11.7476 41.9655 11.7056L41.0173 11.5759C40.7839 12.9234 40.6183 14.249 40.5204 15.5527C40.4295 16.6424 40.4295 17.7378 40.5204 18.8275C40.5412 18.9324 40.5556 19.0413 40.5659 19.1462C40.5755 19.2463 40.6028 19.3439 40.6465 19.4344C40.7071 19.6812 40.855 19.8976 41.0628 20.0436C41.2895 20.1973 41.5588 20.2758 41.8325 20.2678C42.5813 20.2678 43.372 19.7331 44.2044 18.6638C44.3118 18.522 44.408 18.3721 44.4923 18.2154C44.5971 18.0229 44.7059 17.8339 44.8107 17.6518C44.904 17.4866 45.0056 17.3264 45.1152 17.1717C45.2097 17.042 45.2937 16.9613 45.3565 16.9613C45.546 17.0011 45.7257 17.0785 45.885 17.1889C46.0781 17.3033 46.2218 17.4855 46.288 17.7002C46.4778 18.311 46.4252 18.9715 46.1412 19.5445C45.8288 20.2301 45.3759 20.8424 44.8118 21.3415C44.1958 21.8984 43.4985 22.3579 42.7439 22.704C42.0089 23.058 41.2047 23.2446 40.3892 23.2504C39.6543 23.2473 38.9384 23.0172 38.339 22.5916C37.7095 22.1675 37.2006 21.587 36.8623 20.907C36.7575 20.6724 36.6556 20.42 36.5578 20.1537C36.4603 19.8777 36.391 19.5924 36.3511 19.3024C36.2849 18.854 36.2394 18.3226 36.2043 17.7157C36.1692 17.1088 36.1519 16.4478 36.1415 15.74C36.1312 15.0322 36.1415 14.2991 36.1415 13.5262C36.1415 12.7534 36.1622 11.9851 36.2043 11.2209C35.751 11.1085 35.3187 10.924 34.9239 10.6745C34.6027 10.4846 34.3559 10.1905 34.2244 9.84109C33.9901 9.24226 34.0517 8.84976 34.4167 8.66764C34.9348 8.45005 35.4889 8.3312 36.0506 8.31722C36.1205 8.32371 36.1908 8.32371 36.2607 8.31722C36.3393 8.30414 36.4188 8.29835 36.4985 8.29993C36.5871 7.70206 36.7038 7.09267 36.8485 6.47175C36.9859 5.88922 37.1731 5.31962 37.4081 4.76923C37.6097 4.29769 37.8745 3.85579 38.1951 3.45572C38.4449 3.12138 38.8107 2.89275 39.2205 2.81483C39.6878 2.79398 40.155 2.85924 40.5987 3.00733C41.1559 3.17828 41.6775 3.44892 42.1382 3.80614C42.5563 4.10431 42.8785 4.51814 43.0651 4.99688C43.1105 5.23744 43.0948 5.48552 43.0196 5.71846C42.9345 5.96145 42.8267 6.19591 42.6978 6.41874C42.5579 6.66369 42.4042 6.93342 42.2326 7.22102C42.0445 7.55336 41.8943 7.9058 41.7847 8.2717H43.6425C43.9064 8.3319 44.1399 8.48486 44.3006 8.7028C44.4725 8.90904 44.6038 9.14608 44.6875 9.40133Z" fill="#4F4F4F"/>
<path d="M58.0526 16.4304C58.0864 16.3773 58.1337 16.3344 58.1897 16.306C58.2458 16.2776 58.3084 16.2648 58.371 16.269C58.5229 16.258 58.6752 16.2813 58.8169 16.337C58.9586 16.3928 59.086 16.4796 59.1897 16.5912C59.3717 16.8046 59.4689 17.0777 59.4626 17.3583C59.4524 18.082 59.254 18.7906 58.8869 19.4141C58.4726 20.1321 57.9294 20.7674 57.2846 21.2878C56.5635 21.8762 55.7518 22.3433 54.881 22.6711C53.928 23.0284 52.9176 23.2078 51.8999 23.2001C51.1522 23.2032 50.4077 23.1006 49.6886 22.8953C48.3346 22.5141 47.1311 21.7239 46.2424 20.6325C45.8004 20.0875 45.4581 19.4686 45.2314 18.8043C44.8689 17.8157 44.6692 16.7747 44.6402 15.722C44.5946 14.7407 44.7421 13.76 45.0742 12.8357C45.2522 12.3685 45.5065 11.9341 45.8267 11.5504C46.1763 11.1275 46.5922 10.7643 47.0582 10.475C47.5969 10.1473 48.1802 9.89961 48.7899 9.73955C49.5335 9.5472 50.2995 9.45533 51.0675 9.46636C52.0982 9.41685 53.12 9.67934 53.9996 10.2196C54.72 10.7036 55.2652 11.4075 55.554 12.2265C55.8086 12.9229 55.8258 13.684 55.603 14.3912C55.3696 15.0699 54.9603 15.6744 54.417 16.1428C53.8003 16.6738 53.0878 17.0817 52.3179 17.3444C51.4426 17.6527 50.5203 17.8057 49.5925 17.7963C49.7515 18.46 50.0766 19.0723 50.5372 19.5755C51.0938 20.0832 51.8206 20.3632 52.5735 20.3599C53.7595 20.3445 54.9052 19.9274 55.824 19.1767C56.7406 18.4174 57.498 17.484 58.0526 16.4304ZM49.1094 15.884C49.583 15.9554 50.067 15.8957 50.509 15.7111C50.9114 15.5413 51.2702 15.2826 51.5585 14.9543C51.8339 14.6354 52.031 14.2564 52.1343 13.8477C52.2408 13.4526 52.2298 13.035 52.1026 12.6461C52.0071 12.4093 51.8707 12.1911 51.6996 12.0017C51.6076 11.9121 51.4978 11.8429 51.3772 11.7988C51.2567 11.7547 51.1281 11.7366 51.0001 11.7458C50.693 11.7498 50.3975 11.8641 50.1676 12.068C49.8908 12.3103 49.6719 12.6119 49.5274 12.9504C49.3423 13.3695 49.213 13.8111 49.1428 14.2639C49.0535 14.8 49.0416 15.3462 49.1077 15.8857L49.1094 15.884Z" fill="#4F4F4F"/>
<path d="M59.9112 0C60.7492 0.0171122 61.5568 0.317074 62.2031 0.85126C62.9938 1.47149 63.7088 2.1828 64.3333 2.97049C65.0145 3.8158 65.6828 4.72412 66.3379 5.69546C66.9931 6.6668 67.6181 7.55996 68.213 8.37491L69.5879 5.92313C69.9099 5.30183 70.2528 4.68186 70.6167 4.06325C70.9692 3.45498 71.3768 2.88045 71.8343 2.34688C72.2806 1.82245 72.7975 1.36273 73.3703 0.980942C73.9714 0.587922 74.6487 0.326508 75.3577 0.213826C75.7347 0.174214 76.1158 0.206284 76.4809 0.308348C76.7182 0.356554 76.9519 0.420861 77.1804 0.500839C77.4251 0.584986 77.6565 0.673743 77.8799 0.774028C78.0738 0.858264 78.257 0.965259 78.4257 1.09275C78.5501 1.18293 78.6492 1.3036 78.7136 1.44317C78.7398 1.70908 78.6717 1.97574 78.5213 2.19646C78.32 2.5494 78.0858 2.88246 77.8218 3.19123C77.5209 3.54396 77.1779 3.91283 76.793 4.29783C76.408 4.68283 76.0242 5.05764 75.6415 5.42227C75.1752 5.88912 74.6678 6.37479 74.1193 6.87929C73.5709 7.38379 73.0527 7.87061 72.5649 8.33975C72.075 8.81236 71.6201 9.26191 71.2039 9.7057C70.8511 10.0634 70.5346 10.4553 70.2591 10.8757C69.9364 11.3776 69.7684 11.9635 69.7761 12.5603C69.7351 13.4044 69.7457 14.2501 69.8078 15.0928C69.874 16.0248 69.958 16.9844 70.0669 17.9648C70.1757 18.9451 70.2315 19.8419 70.2396 20.6442C70.2642 21.3138 70.1946 21.9835 70.0329 22.6338C70.0026 22.8513 69.895 23.0507 69.7299 23.1954C69.5647 23.3401 69.3531 23.4204 69.1336 23.4216C68.7833 23.4252 68.4359 23.3589 68.1114 23.2266C67.787 23.0943 67.4922 22.8986 67.2441 22.651C66.6292 21.9814 66.2272 21.1438 66.0892 20.2448C65.7744 18.9136 65.5545 17.5618 65.4312 16.1994C65.2911 14.7447 65.2001 13.3121 65.1583 11.9016C64.3254 10.6405 63.4496 9.41579 62.5307 8.22736C61.6119 7.03893 60.6928 5.90065 59.7736 4.81251C59.6009 4.62001 59.4236 4.41654 59.2629 4.19926C59.1023 3.98198 58.9307 3.7791 58.7799 3.57565C58.6421 3.39012 58.5138 3.19776 58.3953 2.9993C58.3096 2.86506 58.2447 2.71853 58.2031 2.56474C58.0956 2.24594 58.1017 1.89976 58.2203 1.58496C58.3291 1.28621 58.4983 1.01311 58.7172 0.782681C58.9153 0.570911 59.1414 0.387102 59.389 0.236305C59.5496 0.130619 59.7258 0.0508756 59.9112 0Z" fill="#4F4F4F"/>
<path d="M86.3521 16.4313C86.3861 16.3778 86.434 16.3345 86.4907 16.3061C86.5474 16.2776 86.6107 16.2652 86.6739 16.27C86.8257 16.259 86.9781 16.2823 87.1198 16.338C87.2614 16.3938 87.3888 16.4806 87.4926 16.5921C87.6729 16.8066 87.7698 17.079 87.7655 17.3593C87.7553 18.083 87.5568 18.7915 87.1897 19.4151C86.7755 20.1331 86.2323 20.7683 85.5875 21.2888C84.8664 21.8771 84.0546 22.3443 83.1839 22.672C82.2309 23.0294 81.2205 23.2088 80.2028 23.2011C79.4539 23.204 78.7084 23.1013 77.988 22.8962C77.3068 22.7015 76.6592 22.4039 76.0674 22.0138C75.494 21.6327 74.9808 21.1677 74.5452 20.6341C74.1022 20.0898 73.7598 19.4707 73.5343 18.8059C73.1701 17.8178 72.9704 16.7765 72.943 15.7236C72.898 14.7426 73.0441 13.7623 73.3731 12.8372C73.5536 12.3705 73.809 11.9365 74.129 11.552C74.4786 11.1291 74.8945 10.7658 75.3605 10.4765C75.8992 10.1489 76.4825 9.90117 77.0922 9.74109C77.8347 9.54898 78.5995 9.4571 79.3663 9.4679C80.3984 9.41805 81.4215 9.68055 82.3025 10.2212C83.0229 10.7052 83.5681 11.409 83.8569 12.228C84.1115 12.9244 84.1287 13.6856 83.9058 14.3928C83.6711 15.0708 83.262 15.6749 82.7199 16.1443C82.1032 16.6754 81.3907 17.0833 80.6208 17.346C79.7454 17.654 78.8232 17.8069 77.8953 17.7979C78.0543 18.4616 78.3795 19.0739 78.8401 19.577C79.3928 20.0911 80.1221 20.372 80.8764 20.3615C82.0636 20.3467 83.2107 19.9294 84.1304 19.1776C85.0456 18.4188 85.8008 17.4853 86.3521 16.4313ZM77.4123 15.885C77.8859 15.9564 78.3699 15.8966 78.8119 15.7121C79.2143 15.5423 79.5731 15.2836 79.8614 14.9553C80.1367 14.6363 80.3339 14.2574 80.4371 13.8487C80.5437 13.4536 80.5327 13.036 80.4055 12.647C80.31 12.4103 80.1735 12.1921 80.0025 12.0027C79.9105 11.913 79.8006 11.8439 79.6801 11.7998C79.5595 11.7557 79.431 11.7376 79.303 11.7468C78.9959 11.7508 78.7004 11.8651 78.4705 12.069C78.1928 12.3105 77.9739 12.6123 77.8303 12.9514C77.6452 13.3704 77.5159 13.8121 77.4457 14.2649C77.3571 14.8005 77.3458 15.3461 77.4123 15.885Z" fill="#4F4F4F"/>
<path d="M103.915 17.681C104.002 17.9176 104.019 18.174 103.964 18.4199C103.801 19.2689 103.408 20.0566 102.827 20.6965C102.444 21.1666 102.008 21.5919 101.529 21.9645C101.061 22.3304 100.55 22.6374 100.007 22.8785C99.5235 23.1006 98.9993 23.2199 98.4675 23.229C97.6997 23.2894 96.9363 23.0677 96.32 22.6053C95.7623 22.0325 95.3747 21.3158 95.2003 20.5351C94.934 20.9296 94.6215 21.2906 94.2693 21.6106C93.9028 21.9428 93.5002 22.2328 93.069 22.4751C92.6332 22.7197 92.1708 22.9131 91.6907 23.0515C91.2271 23.1888 90.7464 23.2596 90.2629 23.2618C89.5421 23.2429 88.8436 23.0074 88.2583 22.5858C87.5881 22.1391 87.0509 21.5194 86.7038 20.7922C86.6411 20.5783 86.5708 20.3686 86.4971 20.1651C86.4191 19.951 86.3594 19.7306 86.3187 19.5063C86.2768 19.1002 86.2348 18.5922 86.1926 17.9825C86.1471 17.3733 86.112 16.711 86.0809 15.9929C86.0498 15.2748 86.032 14.5111 86.032 13.6985C86.032 12.8858 86.0527 12.0628 86.0947 11.2294C85.6437 11.1171 85.212 10.9376 84.8143 10.6969C84.4774 10.5027 84.2272 10.1871 84.1148 9.81447C84.0127 9.56594 83.9908 9.29169 84.0521 9.03006C84.0812 8.9304 84.1321 8.83847 84.2012 8.76092C84.2702 8.68337 84.3555 8.62213 84.451 8.58165C84.7051 8.47171 84.9762 8.40659 85.2524 8.38916C85.5846 8.35746 85.9519 8.34018 86.3895 8.34018C86.4757 7.66295 86.6029 6.99161 86.7706 6.32987C86.9107 5.74941 87.0978 5.18136 87.3302 4.63138C87.5121 4.18649 87.7729 3.7782 88.0999 3.42624C88.373 3.12765 88.7298 2.91853 89.1236 2.82625C89.5716 2.82554 90.0165 2.90137 90.4391 3.05045C90.9772 3.23446 91.4844 3.49892 91.9434 3.83486C92.3762 4.11068 92.704 4.52388 92.8744 5.00831C92.9343 5.16139 92.9663 5.32401 92.9688 5.48841C92.9603 5.58146 92.9333 5.67186 92.8894 5.75432C92.8455 5.83677 92.7856 5.90959 92.7132 5.9685C92.5295 6.30279 92.3637 6.64659 92.2163 6.99844C92.0695 7.36269 91.891 7.78631 91.7195 8.28024H93.2906C93.5667 8.301 93.8244 8.42631 94.0114 8.63066C94.2132 8.80469 94.391 9.00491 94.5399 9.22602C94.6858 9.56478 94.7092 9.94386 94.6061 10.298C94.5085 10.5826 94.322 10.8281 94.0742 10.9983C93.8169 11.176 93.5302 11.3066 93.2273 11.3839C92.923 11.4681 92.6112 11.5221 92.2963 11.5452C92.0827 11.566 91.8519 11.5769 91.5968 11.5769C91.3632 11.571 91.1295 11.5816 90.8973 11.6086C90.7678 12.3089 90.6671 12.978 90.5928 13.6645C90.5185 14.3509 90.4529 15.0131 90.4005 15.654C90.3481 16.2949 90.3199 16.8972 90.3199 17.4649C90.3154 17.9526 90.3375 18.4401 90.3861 18.9254C90.3594 19.0407 90.3594 19.1605 90.3861 19.2758C90.4059 19.3705 90.4377 19.4623 90.4805 19.549C90.5145 19.6763 90.5747 19.795 90.6573 19.8976C90.7399 20.0001 90.843 20.0842 90.9601 20.1444C91.2219 20.2651 91.5079 20.3242 91.796 20.3172C92.2227 20.2929 92.6312 20.1362 92.9648 19.8689C93.4765 19.4606 93.9062 18.959 94.2313 18.3905C94.3816 18.1139 94.5192 17.8269 94.6476 17.526C94.6269 17.1756 94.6055 16.7191 94.5848 16.1952C94.5641 15.6713 94.5566 15.1232 94.5675 14.5595C94.5785 13.9959 94.6165 13.4178 94.6792 12.8432C94.7317 12.3152 94.8553 11.7968 95.0465 11.302C95.2046 10.8881 95.4519 10.5142 95.7708 10.207C96.0778 9.91105 96.4886 9.74756 96.9147 9.75164C97.4877 9.71627 98.0607 9.82091 98.5843 10.0565C98.8954 10.2163 99.1686 10.441 99.3857 10.7153C99.4485 10.8882 99.5009 11.0306 99.5469 11.1499C99.5888 11.2689 99.5888 11.3986 99.5469 11.5176H99.5786C99.5743 11.517 99.5699 11.5174 99.5658 11.5188C99.5617 11.5202 99.558 11.5225 99.555 11.5256C99.5519 11.5287 99.5496 11.5324 99.5482 11.5365C99.5468 11.5406 99.5464 11.545 99.5469 11.5493C99.6036 11.6787 99.6459 11.814 99.673 11.9527C99.6937 12.068 99.715 12.1833 99.7392 12.3031C99.7153 12.6683 99.672 13.0319 99.6097 13.3924C99.5469 13.7429 99.4767 14.163 99.3995 14.6149C99.3224 15.0667 99.2527 15.5641 99.1756 16.1209C99.0952 16.7603 99.0474 17.4033 99.0322 18.0476C99.0322 18.2822 99.0322 18.5277 99.015 18.783C99.005 19.04 99.0107 19.2973 99.0322 19.5536C99.095 19.855 99.3541 20.002 99.802 20.002C100.081 19.9705 100.35 19.88 100.591 19.7363C100.833 19.5926 101.041 19.399 101.202 19.1686C101.731 18.5508 102.219 17.8978 102.66 17.2142C102.768 17.1072 102.885 17.0107 103.01 16.926C103.195 16.9867 103.368 17.0791 103.521 17.1992C103.7 17.3146 103.837 17.484 103.913 17.6828L103.915 17.681ZM95.966 5.90511C95.7857 5.39447 95.6945 4.85656 95.6965 4.31496C95.6962 3.89258 95.7769 3.47406 95.9343 3.08215C96.064 2.76633 96.2738 2.48981 96.5428 2.27987C96.7822 2.09394 97.0764 1.99261 97.3794 1.9917C97.7187 2.00069 98.0563 2.04415 98.3869 2.12138C98.7753 2.20479 99.1558 2.32205 99.5239 2.4718C99.8717 2.61223 100.201 2.79578 100.503 3.01818C100.757 3.1883 100.952 3.43287 101.062 3.71844C101.116 3.79511 101.142 3.88782 101.136 3.98134C101.131 4.07485 101.093 4.16363 101.031 4.23312L100.775 4.55185C100.592 4.76393 100.451 5.00876 100.359 5.27342C100.25 5.5616 100.152 5.85842 100.071 6.15582L99.8785 6.60767C99.7891 6.87056 99.6717 7.1231 99.5285 7.36096C99.4825 7.45362 99.415 7.53384 99.3315 7.59484C99.248 7.65583 99.1511 7.6958 99.0489 7.71138H99.0806C99.0227 7.71356 98.965 7.71933 98.9079 7.72867C98.8485 7.73273 98.7888 7.73273 98.7294 7.72867C98.467 7.7282 98.205 7.70719 97.9459 7.66584C97.6772 7.6226 97.4173 7.53619 97.1761 7.40995C96.9165 7.26936 96.6879 7.07762 96.5043 6.84628C96.2762 6.56305 96.0945 6.24537 95.966 5.90511Z" fill="#4F4F4F"/>
</svg>
