<svg width="34" height="38" viewBox="0 0 34 38" fill="none" xmlns="http://www.w3.org/2000/svg">
<path d="M4.28564 3.75V33.75L17.3948 24.773L29.8844 33.75V3.75H4.28564ZM4.28564 0H29.8844C31.9554 0 33.6344 1.67893 33.6344 3.75V33.75C33.6344 35.1567 32.8471 36.4451 31.5954 37.0869C31.0559 37.3635 30.4691 37.5 29.8848 37.5C29.1132 37.5 28.3457 37.2622 27.6957 36.795L17.3427 29.3536L6.40443 36.8441C5.76871 37.2794 5.02843 37.5 4.28535 37.5C3.68657 37.5 3.08599 37.3568 2.53677 37.0672C1.30599 36.4184 0.535645 35.1414 0.535645 33.75V3.75C0.535645 1.67893 2.21457 0 4.28564 0Z" fill="#4F4F4F"/>
</svg>
