<svg width="33" height="38" viewBox="0 0 33 38" fill="none" xmlns="http://www.w3.org/2000/svg">
<path d="M25.8929 10.2676C28.1119 10.2676 29.9107 8.46879 29.9107 6.24979C29.9107 4.03079 28.1119 2.23193 25.8929 2.23193C23.6739 2.23193 21.875 4.03079 21.875 6.24979C21.875 8.46879 23.6739 10.2676 25.8929 10.2676Z" stroke="#4F4F4F" stroke-width="2.5"/>
<path d="M6.25004 22.7676C8.46904 22.7676 10.2679 20.9688 10.2679 18.7498C10.2679 16.5308 8.46904 14.7319 6.25004 14.7319C4.03103 14.7319 2.23218 16.5308 2.23218 18.7498C2.23218 20.9688 4.03103 22.7676 6.25004 22.7676Z" stroke="#4F4F4F" stroke-width="2.5"/>
<path d="M25.8929 35.2676C28.1119 35.2676 29.9107 33.4688 29.9107 31.2498C29.9107 29.0308 28.1119 27.2319 25.8929 27.2319C23.6739 27.2319 21.875 29.0308 21.875 31.2498C21.875 33.4688 23.6739 35.2676 25.8929 35.2676Z" stroke="#4F4F4F" stroke-width="2.5"/>
<path d="M9.82153 16.9642L22.3215 8.03564" stroke="#4F4F4F" stroke-width="2.5"/>
<path d="M11.6072 22.3213L20.5358 27.6784" stroke="#4F4F4F" stroke-width="2.5" stroke-linecap="square"/>
</svg>
