<svg width="25" height="26" viewBox="0 0 25 26" fill="none" xmlns="http://www.w3.org/2000/svg">
<path d="M1.48926 6.25146H22.9349" stroke="#93D9F8" stroke-width="2.5" stroke-linecap="round" stroke-linejoin="round"/>
<path d="M7.57167 6.06656V3.75545C7.5634 3.15065 7.80313 2.56743 8.23814 2.13404C8.67314 1.70064 9.26781 1.45256 9.89138 1.44434H14.532C15.1556 1.45256 15.7502 1.70064 16.1852 2.13404C16.6202 2.56743 16.86 3.15065 16.8517 3.75545V6.06656M20.333 6.06656V22.2443C20.3413 22.8491 20.1016 23.4323 19.6666 23.8657C19.2316 24.2991 18.6369 24.5472 18.0133 24.5554H6.41122C5.78766 24.5472 5.19299 24.2991 4.75798 23.8657C4.32297 23.4323 4.08324 22.8491 4.09152 22.2443V6.06656H20.333Z" stroke="#93D9F8" stroke-width="2.5" stroke-linecap="round" stroke-linejoin="round"/>
</svg>
