<svg width="35" height="38" viewBox="0 0 35 38" fill="none" xmlns="http://www.w3.org/2000/svg">
<path d="M2.4021 9.01709H32.4657" stroke="#4F4F4F" stroke-width="2.5" stroke-linecap="round" stroke-linejoin="round"/>
<path d="M10.9285 8.75016V5.41683C10.9169 4.54453 11.253 3.70335 11.8628 3.07826C12.4726 2.45317 13.3062 2.09535 14.1804 2.0835H20.6858C21.56 2.09535 22.3936 2.45317 23.0034 3.07826C23.6132 3.70335 23.9493 4.54453 23.9377 5.41683V8.75016M28.818 8.75016V32.0835C28.8296 32.9558 28.4936 33.797 27.8838 34.4221C27.2739 35.0472 26.4403 35.405 25.5662 35.4168H9.30173C8.42759 35.405 7.59395 35.0472 6.98413 34.4221C6.37432 33.797 6.03826 32.9558 6.04985 32.0835V8.75016H28.818Z" stroke="#4F4F4F" stroke-width="2.5" stroke-linecap="round" stroke-linejoin="round"/>
</svg>
