<svg width="17" height="21" viewBox="0 0 17 21" fill="none" xmlns="http://www.w3.org/2000/svg">
<path d="M7.07422 0.114264C6.5127 -0.118156 5.86769 0.0107436 5.43946 0.439464L0.439455 5.43946C-0.146485 6.0254 -0.146485 6.97462 0.439455 7.56055C1.0254 8.14648 1.97462 8.14649 2.56055 7.56055L4.99999 5.1211V19.4473C4.99999 20.2754 5.67138 20.9473 6.49999 20.9473C7.3286 20.9473 7.99999 20.2754 7.99999 19.4473V1.5C8 0.893554 7.63477 0.346684 7.07422 0.114264ZM14.3594 13.3867L11.9199 15.8262V1.5C11.9199 0.671874 11.248 3.8575e-06 10.4199 3.8575e-06C9.59181 3.8575e-06 8.91993 0.671884 8.91993 1.5V19.4473C8.91993 20.0537 9.28516 20.6006 9.84571 20.833C10.0313 20.9102 10.2266 20.9473 10.4199 20.9473C10.8096 20.9473 11.1934 20.7949 11.4805 20.5078L16.4805 15.5078C17.0664 14.9219 17.0664 13.9727 16.4805 13.3867C15.8945 12.8008 14.9453 12.8008 14.3594 13.3867Z" fill="#93D9F8"/>
</svg>
